# xmcd
#
# Track frame offsets: 
#        150
#        11986
#        21906
#        32704
#        42615
#        60909
#        70385
#        81270
#        92047
#        103592
#        114821
#        126568
#
# Disc length: 1854 seconds
#
# Revision: 0
# Processed by: cddbd v1.5.2PL0 Copyright (c) Steve Scherf et al.
# Submitted via: ExactAudioCopy v0.99pb5
#
DISCID=a1073c0c
DTITLE=Tim Carroll - All Kinds Of Pain
DYEAR=2009
DGENRE=Country Rock
TTITLE0=Soybeans, Cotton And Corn
TTITLE1=Can't Stay Young
TTITLE2=Educated
TTITLE3=What'll We Do 'Til Then
TTITLE4=Drive All Night
TTITLE5=Run For Love
TTITLE6=The Crowd Wants Blood
TTITLE7=That's What I'm For
TTITLE8=Poor Man's Way
TTITLE9=All Kinds Of Pain
TTITLE10=You Got Me
TTITLE11=If I Could
EXTD=
EXTT0=
EXTT1=
EXTT2=
EXTT3=
EXTT4=
EXTT5=
EXTT6=
EXTT7=
EXTT8=
EXTT9=
EXTT10=
EXTT11=
PLAYORDER=
